<mxfile modified="2022-08-21T07:05:10.089Z" host="app.diagrams.net" agent="5.0 (Windows NT 10.0; Win64; x64) AppleWebKit/537.36 (KHTML, like Gecko) Chrome/104.0.0.0 Safari/537.36" etag="9JwVaXifshUW1HJkapRO" version="20.2.5" type="github">
  <diagram id="C2fSY1v2SiZeoUbDoYyL" name="Page-1">
    <mxGraphModel dx="1038" dy="602" grid="1" gridSize="10" guides="1" tooltips="1" connect="1" arrows="1" fold="1" page="1" pageScale="1" pageWidth="1169" pageHeight="827" math="0" shadow="0">
      <root>
        <mxCell id="0" />
        <mxCell id="1" parent="0" />
        <mxCell id="xm-ksiIEv6j5-uSu17su-44" value="" style="sketch=0;pointerEvents=1;shadow=0;dashed=0;html=1;strokeColor=none;fillColor=#005F4B;labelPosition=center;verticalLabelPosition=bottom;verticalAlign=top;align=center;outlineConnect=0;shape=mxgraph.veeam2.transport;" vertex="1" parent="1">
          <mxGeometry x="536" y="87.75" width="70" height="50" as="geometry" />
        </mxCell>
        <mxCell id="xm-ksiIEv6j5-uSu17su-8" value="" style="image;html=1;image=img/lib/clip_art/general/Earth_globe_128x128.png" vertex="1" parent="1">
          <mxGeometry x="181.25" y="568" width="80" height="80" as="geometry" />
        </mxCell>
        <mxCell id="xm-ksiIEv6j5-uSu17su-12" value="" style="outlineConnect=0;dashed=0;verticalLabelPosition=bottom;verticalAlign=top;align=center;html=1;shape=mxgraph.aws3.elastic_ip;fillColor=#F58534;gradientColor=none;rotation=0;" vertex="1" parent="1">
          <mxGeometry x="235.5" y="108.25" width="76.5" height="21" as="geometry" />
        </mxCell>
        <mxCell id="xm-ksiIEv6j5-uSu17su-13" value="" style="outlineConnect=0;dashed=0;verticalLabelPosition=bottom;verticalAlign=top;align=center;html=1;shape=mxgraph.aws3.workspaces;fillColor=#D16A28;gradientColor=#F58435;gradientDirection=north;" vertex="1" parent="1">
          <mxGeometry x="147" y="71.5" width="82.5" height="94.5" as="geometry" />
        </mxCell>
        <mxCell id="xm-ksiIEv6j5-uSu17su-14" value="" style="outlineConnect=0;dashed=0;verticalLabelPosition=bottom;verticalAlign=top;align=center;html=1;shape=mxgraph.aws3.certificate;fillColor=#5294CF;gradientColor=none;" vertex="1" parent="1">
          <mxGeometry x="868.5" y="560" width="63" height="85.5" as="geometry" />
        </mxCell>
        <mxCell id="xm-ksiIEv6j5-uSu17su-16" value="" style="aspect=fixed;html=1;points=[];align=center;image;fontSize=12;image=img/lib/azure2/compute/Virtual_Machine.svg;" vertex="1" parent="1">
          <mxGeometry x="325.5" y="86.75" width="69" height="64" as="geometry" />
        </mxCell>
        <mxCell id="xm-ksiIEv6j5-uSu17su-18" value="" style="aspect=fixed;html=1;points=[];align=center;image;fontSize=12;image=img/lib/azure2/security/Conditional_Access.svg;" vertex="1" parent="1">
          <mxGeometry x="872" y="657.5" width="56.00000000000001" height="68" as="geometry" />
        </mxCell>
        <mxCell id="xm-ksiIEv6j5-uSu17su-19" value="" style="sketch=0;pointerEvents=1;shadow=0;dashed=0;html=1;strokeColor=none;labelPosition=center;verticalLabelPosition=bottom;verticalAlign=top;align=center;fillColor=#505050;shape=mxgraph.mscae.oms.log_search" vertex="1" parent="1">
          <mxGeometry x="497.5" y="100.75" width="50" height="50" as="geometry" />
        </mxCell>
        <mxCell id="xm-ksiIEv6j5-uSu17su-23" value="" style="sketch=0;aspect=fixed;html=1;points=[];align=center;image;fontSize=12;image=img/lib/mscae/BillingHub.svg;" vertex="1" parent="1">
          <mxGeometry x="689" y="303.5" width="61" height="61" as="geometry" />
        </mxCell>
        <mxCell id="xm-ksiIEv6j5-uSu17su-25" value="" style="sketch=0;points=[[0.015,0.015,0],[0.985,0.015,0],[0.985,0.985,0],[0.015,0.985,0],[0.25,0,0],[0.5,0,0],[0.75,0,0],[1,0.25,0],[1,0.5,0],[1,0.75,0],[0.75,1,0],[0.5,1,0],[0.25,1,0],[0,0.75,0],[0,0.5,0],[0,0.25,0]];verticalLabelPosition=bottom;html=1;verticalAlign=top;aspect=fixed;align=center;pointerEvents=1;shape=mxgraph.cisco19.rect;prIcon=multipoint_meeting_server;fillColor=#FAFAFA;strokeColor=#005073;" vertex="1" parent="1">
          <mxGeometry x="945.25" y="86.75" width="50" height="50" as="geometry" />
        </mxCell>
        <mxCell id="xm-ksiIEv6j5-uSu17su-30" value="" style="verticalLabelPosition=bottom;sketch=0;html=1;fillColor=#282828;strokeColor=none;verticalAlign=top;pointerEvents=1;align=center;shape=mxgraph.cisco_safe.iot_things_icons.icon34;" vertex="1" parent="1">
          <mxGeometry x="741" y="95.25" width="50" height="35" as="geometry" />
        </mxCell>
        <mxCell id="xm-ksiIEv6j5-uSu17su-31" value="" style="aspect=fixed;perimeter=ellipsePerimeter;html=1;align=center;shadow=0;dashed=0;fontColor=#4277BB;labelBackgroundColor=#ffffff;fontSize=12;spacingTop=3;image;image=img/lib/ibm/blockchain/membership_services_provider_api.svg;" vertex="1" parent="1">
          <mxGeometry x="868.5" y="484.5" width="60" height="60" as="geometry" />
        </mxCell>
        <mxCell id="xm-ksiIEv6j5-uSu17su-32" value="" style="aspect=fixed;perimeter=ellipsePerimeter;html=1;align=center;shadow=0;dashed=0;fontColor=#4277BB;labelBackgroundColor=#ffffff;fontSize=12;spacingTop=3;image;image=img/lib/ibm/blockchain/transaction_manager.svg;" vertex="1" parent="1">
          <mxGeometry x="280" y="580" width="60" height="60" as="geometry" />
        </mxCell>
        <mxCell id="xm-ksiIEv6j5-uSu17su-49" value="El cliente ingresa a Taneneka" style="text;html=1;strokeColor=none;fillColor=none;align=center;verticalAlign=middle;whiteSpace=wrap;rounded=0;fontColor=#330000;fontStyle=1" vertex="1" parent="1">
          <mxGeometry x="149.75" y="180" width="60" height="20" as="geometry" />
        </mxCell>
        <mxCell id="xm-ksiIEv6j5-uSu17su-53" value="registra su solicitud" style="text;html=1;strokeColor=none;fillColor=none;align=center;verticalAlign=middle;whiteSpace=wrap;rounded=0;fontColor=#330000;fontStyle=1" vertex="1" parent="1">
          <mxGeometry x="325.5" y="180" width="60" height="20" as="geometry" />
        </mxCell>
        <mxCell id="xm-ksiIEv6j5-uSu17su-54" value="" style="outlineConnect=0;dashed=0;verticalLabelPosition=bottom;verticalAlign=top;align=center;html=1;shape=mxgraph.aws3.elastic_ip;fillColor=#F58534;gradientColor=none;rotation=0;" vertex="1" parent="1">
          <mxGeometry x="411" y="108.25" width="76.5" height="21" as="geometry" />
        </mxCell>
        <mxCell id="xm-ksiIEv6j5-uSu17su-55" value="ubicamos al transportista" style="text;html=1;strokeColor=none;fillColor=none;align=center;verticalAlign=middle;whiteSpace=wrap;rounded=0;fontColor=#330000;fontStyle=1" vertex="1" parent="1">
          <mxGeometry x="536" y="160" width="60" height="20" as="geometry" />
        </mxCell>
        <mxCell id="xm-ksiIEv6j5-uSu17su-57" value="" style="outlineConnect=0;dashed=0;verticalLabelPosition=bottom;verticalAlign=top;align=center;html=1;shape=mxgraph.aws3.elastic_ip;fillColor=#F58534;gradientColor=none;rotation=0;" vertex="1" parent="1">
          <mxGeometry x="631" y="108.25" width="76.5" height="21" as="geometry" />
        </mxCell>
        <mxCell id="xm-ksiIEv6j5-uSu17su-59" value="" style="sketch=0;pointerEvents=1;shadow=0;dashed=0;html=1;strokeColor=none;labelPosition=center;verticalLabelPosition=bottom;verticalAlign=top;align=center;fillColor=#505050;shape=mxgraph.mscae.oms.log_search" vertex="1" parent="1">
          <mxGeometry x="170" y="623" width="50" height="50" as="geometry" />
        </mxCell>
        <mxCell id="xm-ksiIEv6j5-uSu17su-61" value="le informamos a nuestro cliente" style="text;html=1;strokeColor=none;fillColor=none;align=center;verticalAlign=middle;whiteSpace=wrap;rounded=0;fontColor=#330000;fontStyle=1" vertex="1" parent="1">
          <mxGeometry x="741" y="160" width="60" height="20" as="geometry" />
        </mxCell>
        <mxCell id="xm-ksiIEv6j5-uSu17su-62" value="" style="outlineConnect=0;dashed=0;verticalLabelPosition=bottom;verticalAlign=top;align=center;html=1;shape=mxgraph.aws3.elastic_ip;fillColor=#F58534;gradientColor=none;rotation=100;" vertex="1" parent="1">
          <mxGeometry x="923.75" y="240" width="76.5" height="21" as="geometry" />
        </mxCell>
        <mxCell id="xm-ksiIEv6j5-uSu17su-63" value="los ponemos en contacto" style="text;html=1;strokeColor=none;fillColor=none;align=center;verticalAlign=middle;whiteSpace=wrap;rounded=0;fontColor=#330000;fontStyle=1" vertex="1" parent="1">
          <mxGeometry x="940.25" y="161.75" width="60" height="20" as="geometry" />
        </mxCell>
        <mxCell id="xm-ksiIEv6j5-uSu17su-69" value="" style="sketch=0;pointerEvents=1;shadow=0;dashed=0;html=1;strokeColor=none;fillColor=#505050;labelPosition=center;verticalLabelPosition=bottom;verticalAlign=top;outlineConnect=0;align=center;shape=mxgraph.office.users.credentials;fontColor=#330000;" vertex="1" parent="1">
          <mxGeometry x="916.5" y="303.5" width="56" height="58" as="geometry" />
        </mxCell>
        <mxCell id="xm-ksiIEv6j5-uSu17su-71" value="" style="outlineConnect=0;dashed=0;verticalLabelPosition=bottom;verticalAlign=top;align=center;html=1;shape=mxgraph.aws3.elastic_ip;fillColor=#F58534;gradientColor=none;rotation=-179;" vertex="1" parent="1">
          <mxGeometry x="802.75" y="340" width="76.5" height="21" as="geometry" />
        </mxCell>
        <mxCell id="xm-ksiIEv6j5-uSu17su-72" value="el cliente aprueba el servicio" style="text;html=1;strokeColor=none;fillColor=none;align=center;verticalAlign=middle;whiteSpace=wrap;rounded=0;fontColor=#330000;fontStyle=1" vertex="1" parent="1">
          <mxGeometry x="912.5" y="392" width="60" height="20" as="geometry" />
        </mxCell>
        <mxCell id="xm-ksiIEv6j5-uSu17su-74" value="" style="outlineConnect=0;dashed=0;verticalLabelPosition=bottom;verticalAlign=top;align=center;html=1;shape=mxgraph.aws3.elastic_ip;fillColor=#F58534;gradientColor=none;rotation=-179;" vertex="1" parent="1">
          <mxGeometry x="570" y="340" width="76.5" height="21" as="geometry" />
        </mxCell>
        <mxCell id="xm-ksiIEv6j5-uSu17su-75" value="el cliente paga el costo del servicio" style="text;html=1;strokeColor=none;fillColor=none;align=center;verticalAlign=middle;whiteSpace=wrap;rounded=0;fontColor=#330000;fontStyle=1" vertex="1" parent="1">
          <mxGeometry x="689" y="389.5" width="60" height="20" as="geometry" />
        </mxCell>
        <mxCell id="xm-ksiIEv6j5-uSu17su-78" value="" style="outlineConnect=0;dashed=0;verticalLabelPosition=bottom;verticalAlign=top;align=center;html=1;shape=mxgraph.aws3.elastic_ip;fillColor=#F58534;gradientColor=none;rotation=-179;" vertex="1" parent="1">
          <mxGeometry x="303.5" y="340" width="76.5" height="21" as="geometry" />
        </mxCell>
        <mxCell id="xm-ksiIEv6j5-uSu17su-79" value="" style="sketch=0;aspect=fixed;html=1;points=[];align=center;image;fontSize=12;image=img/lib/mscae/BillingHub.svg;" vertex="1" parent="1">
          <mxGeometry x="190.75" y="303.5" width="61" height="61" as="geometry" />
        </mxCell>
        <mxCell id="xm-ksiIEv6j5-uSu17su-80" value="se le abona un % al transportista para que cubra gastos (peajes, diesel, etc)&amp;nbsp;" style="text;html=1;strokeColor=none;fillColor=none;align=center;verticalAlign=middle;whiteSpace=wrap;rounded=0;fontColor=#330000;fontStyle=1" vertex="1" parent="1">
          <mxGeometry x="170" y="397.5" width="101.5" height="20" as="geometry" />
        </mxCell>
        <mxCell id="xm-ksiIEv6j5-uSu17su-82" value="" style="sketch=0;pointerEvents=1;shadow=0;dashed=0;html=1;strokeColor=none;fillColor=#005F4B;labelPosition=center;verticalLabelPosition=bottom;verticalAlign=top;align=center;outlineConnect=0;shape=mxgraph.veeam2.transport;" vertex="1" parent="1">
          <mxGeometry x="430" y="313" width="90" height="50" as="geometry" />
        </mxCell>
        <mxCell id="xm-ksiIEv6j5-uSu17su-81" value="" style="outlineConnect=0;dashed=0;verticalLabelPosition=bottom;verticalAlign=top;align=center;html=1;shape=mxgraph.aws3.elastic_ip;fillColor=#F58534;gradientColor=none;rotation=75;" vertex="1" parent="1">
          <mxGeometry x="195" y="490" width="76.5" height="21" as="geometry" />
        </mxCell>
        <mxCell id="xm-ksiIEv6j5-uSu17su-84" value="el transportista acepta y traslada la carga" style="text;html=1;strokeColor=none;fillColor=none;align=center;verticalAlign=middle;whiteSpace=wrap;rounded=0;fontColor=#330000;fontStyle=1" vertex="1" parent="1">
          <mxGeometry x="448.75" y="387.5" width="60" height="20" as="geometry" />
        </mxCell>
        <mxCell id="xm-ksiIEv6j5-uSu17su-85" value="" style="outlineConnect=0;dashed=0;verticalLabelPosition=bottom;verticalAlign=top;align=center;html=1;shape=mxgraph.aws3.elastic_ip;fillColor=#F58534;gradientColor=none;rotation=0;" vertex="1" parent="1">
          <mxGeometry x="620" y="610" width="76.5" height="21" as="geometry" />
        </mxCell>
        <mxCell id="xm-ksiIEv6j5-uSu17su-86" value="" style="outlineConnect=0;dashed=0;verticalLabelPosition=bottom;verticalAlign=top;align=center;html=1;shape=mxgraph.aws3.elastic_ip;fillColor=#F58534;gradientColor=none;rotation=0;" vertex="1" parent="1">
          <mxGeometry x="372.25" y="610" width="76.5" height="21" as="geometry" />
        </mxCell>
        <mxCell id="xm-ksiIEv6j5-uSu17su-87" value="seguimiento de la carga y comunicación permanente con el cliente y con el transportista" style="text;html=1;strokeColor=none;fillColor=none;align=center;verticalAlign=middle;whiteSpace=wrap;rounded=0;fontColor=#330000;fontStyle=1" vertex="1" parent="1">
          <mxGeometry x="215.75" y="694" width="101.5" height="20" as="geometry" />
        </mxCell>
        <mxCell id="xm-ksiIEv6j5-uSu17su-88" value="" style="sketch=0;pointerEvents=1;shadow=0;dashed=0;html=1;strokeColor=none;fillColor=#005F4B;labelPosition=center;verticalLabelPosition=bottom;verticalAlign=top;align=center;outlineConnect=0;shape=mxgraph.veeam2.transport;" vertex="1" parent="1">
          <mxGeometry x="487.5" y="591" width="90" height="50" as="geometry" />
        </mxCell>
        <mxCell id="xm-ksiIEv6j5-uSu17su-89" value="confirmación de que el transportista entregó la carga" style="text;html=1;strokeColor=none;fillColor=none;align=center;verticalAlign=middle;whiteSpace=wrap;rounded=0;fontColor=#330000;fontStyle=1" vertex="1" parent="1">
          <mxGeometry x="506.25" y="665.5" width="60" height="20" as="geometry" />
        </mxCell>
        <mxCell id="xm-ksiIEv6j5-uSu17su-90" value="" style="sketch=0;aspect=fixed;html=1;points=[];align=center;image;fontSize=12;image=img/lib/mscae/BillingHub.svg;" vertex="1" parent="1">
          <mxGeometry x="728.25" y="580" width="61" height="61" as="geometry" />
        </mxCell>
        <mxCell id="xm-ksiIEv6j5-uSu17su-91" value="se cancela el saldo al transportista" style="text;html=1;strokeColor=none;fillColor=none;align=center;verticalAlign=middle;whiteSpace=wrap;rounded=0;fontColor=#330000;fontStyle=1" vertex="1" parent="1">
          <mxGeometry x="707.5" y="674" width="101.5" height="20" as="geometry" />
        </mxCell>
        <mxCell id="xm-ksiIEv6j5-uSu17su-92" value="" style="outlineConnect=0;dashed=0;verticalLabelPosition=bottom;verticalAlign=top;align=center;html=1;shape=mxgraph.aws3.elastic_ip;fillColor=#F58534;gradientColor=none;rotation=0;" vertex="1" parent="1">
          <mxGeometry x="840" y="102.25" width="76.5" height="21" as="geometry" />
        </mxCell>
        <mxCell id="xm-ksiIEv6j5-uSu17su-100" value="Clientes Satisfechos" style="text;html=1;strokeColor=none;fillColor=none;align=center;verticalAlign=middle;whiteSpace=wrap;rounded=0;fontColor=#330000;fontStyle=1" vertex="1" parent="1">
          <mxGeometry x="938.5" y="504.5" width="101.5" height="20" as="geometry" />
        </mxCell>
        <mxCell id="xm-ksiIEv6j5-uSu17su-101" value="Proceso transparente y certificado" style="text;html=1;strokeColor=none;fillColor=none;align=center;verticalAlign=middle;whiteSpace=wrap;rounded=0;fontColor=#330000;fontStyle=1" vertex="1" parent="1">
          <mxGeometry x="938.5" y="584.5" width="101.5" height="20" as="geometry" />
        </mxCell>
        <mxCell id="xm-ksiIEv6j5-uSu17su-102" value="100% Seguro" style="text;html=1;strokeColor=none;fillColor=none;align=center;verticalAlign=middle;whiteSpace=wrap;rounded=0;fontColor=#330000;fontStyle=1" vertex="1" parent="1">
          <mxGeometry x="938.5" y="678.5" width="101.5" height="20" as="geometry" />
        </mxCell>
        <mxCell id="xm-ksiIEv6j5-uSu17su-104" value="" style="swimlane;startSize=0;fontColor=#330000;" vertex="1" parent="1">
          <mxGeometry x="840" y="470" width="218.5" height="264.5" as="geometry" />
        </mxCell>
      </root>
    </mxGraphModel>
  </diagram>
</mxfile>
